
		<svg xmlns="http://www.w3.org/2000/svg" xmlns:xlink="http://www.w3.org/1999/xlink" version="1.1" width="3078.0669144981407" height="3111.524163568773">
			
			<g transform="scale(5.5762081784386615) translate(10, 10)">
				<defs id="SvgjsDefs1542"><linearGradient id="SvgjsLinearGradient1548"><stop id="SvgjsStop1549" stop-color="#e93e3a" offset="0"></stop><stop id="SvgjsStop1550" stop-color="#ed683c" offset="0.1"></stop><stop id="SvgjsStop1551" stop-color="#f3903f" offset="0.3"></stop><stop id="SvgjsStop1552" stop-color="#fdc70c" offset="0.7"></stop><stop id="SvgjsStop1553" stop-color="#fff33b" offset="1"></stop></linearGradient><linearGradient id="SvgjsLinearGradient1554"><stop id="SvgjsStop1555" stop-color="#e93e3a" offset="0"></stop><stop id="SvgjsStop1556" stop-color="#ed683c" offset="0.1"></stop><stop id="SvgjsStop1557" stop-color="#f3903f" offset="0.3"></stop><stop id="SvgjsStop1558" stop-color="#fdc70c" offset="0.7"></stop><stop id="SvgjsStop1559" stop-color="#fff33b" offset="1"></stop></linearGradient><linearGradient id="SvgjsLinearGradient1560"><stop id="SvgjsStop1561" stop-color="#e93e3a" offset="0"></stop><stop id="SvgjsStop1562" stop-color="#ed683c" offset="0.1"></stop><stop id="SvgjsStop1563" stop-color="#f3903f" offset="0.3"></stop><stop id="SvgjsStop1564" stop-color="#fdc70c" offset="0.7"></stop><stop id="SvgjsStop1565" stop-color="#fff33b" offset="1"></stop></linearGradient><linearGradient id="SvgjsLinearGradient1566"><stop id="SvgjsStop1567" stop-color="#e93e3a" offset="0"></stop><stop id="SvgjsStop1568" stop-color="#ed683c" offset="0.1"></stop><stop id="SvgjsStop1569" stop-color="#f3903f" offset="0.3"></stop><stop id="SvgjsStop1570" stop-color="#fdc70c" offset="0.7"></stop><stop id="SvgjsStop1571" stop-color="#fff33b" offset="1"></stop></linearGradient></defs><g id="SvgjsG1543" featureKey="QriHa0" fill="#1c8474" transform="matrix(1,0,0,1,0,0)"></g><g id="SvgjsG1544" featureKey="gdI0oC" fill="url(#SvgjsLinearGradient1548)" transform="matrix(4.917802921540763,0,0,4.917802921540763,0.1188962369332378,-0.49178029948217367)"><g xmlns="http://www.w3.org/2000/svg" fill=""><path d="M16.8 23.4l.7-.8a53.7 53.7 0 0 1 6-5.7l1.4-1.1.7-.5.7-.5.7-.5.8-.5.8-.5.8-.5 1.6-.9.4-.2.4-.2.8-.4.8-.4.8-.4 1.6-.8 2.1-.9 1.4-.6 1.3-.5 1.4-.4.6-.2h.6l1.2-.3.6-.2h.6l2.4-.7 2.7-.4 1.5-.3h-2.3l-2.2.3-2.1.4-.9.2-.9.2-.8.2-.8.2-1.4.3-1.3.4-1.7.6a59.2 59.2 0 0 0-7.2 3.3l-1.7 1-1.6 1-1.6 1.1-.8.5-.8.6L22 17l-1.1.9-1 .9-.5.5-.5.5-1 1.1-.5.5-.5.5L16 23l-.2.3-.2.3-.4.6-.9 1.1-.8 1.2-.4.6-.2.3-.2.3-1 1.6-1.2 1.7-.5.8-.4.8-.4.8-.2.4-.2.4-.7 1.8-.4.9-.3.9-.3.9-.3.9-.3.9-.2.5v.5l-.6 1.9-.5 2c-.2.7-.3 1.3-.4 2l-.2 1c-.1.3-.1.7-.1 1L4.3 51c0 .5-.1 1-.1 1.3v2c0 .4 0 1.2.1 1.6s.1 1.1.3-.1V54c0-.3 0-.5.1-.8v-2.5l.5-1.7a52 52 0 0 1 2.2-8.9 61.2 61.2 0 0 1 3.7-8.5l.6-1.1.4-.6.4-.6.5-.9.3-.4.3-.4 1.2-1.7 1.3-1.6zM102.8 34.4l-.3-.7-.3-.6-.6-1.2-.2-.3-.2-.3-.3-.5-.6-.9-.3-.5-.4-.5-.7-1-.3-.4-.3-.4-.8-1-.5-.6-.4-.3c-.1-.1-.1 0 0 .2l.3.4.3.5.9 1.3.4.6.4.6.7 1.2.8 1.4a54.8 54.8 0 0 1 3.3 7.5l.5 1.6.3.8.2.8.5 1.7.4 1.7.2.8v.8l.3 1.6.2 1.6v.7c0 .3 0 .5.1.8v7.5a48.6 48.6 0 0 1-4.5 18.4l-.3.6-.3.6-.6 1.3-.3.6-.3.6-.7 1.2-.7 1.1-.7 1.1-.7 1-.7 1-.5.7-.5.7-.6 1.2-.8 1-.4.5-.4.5c-1.3 1.4-1 1.4.6-.2a50.8 50.8 0 0 0 6.7-8.7l.5-.8.3-.4.2-.4.9-1.7c.6-1.2 1.1-2.4 1.6-3.6l.4-.9.3-.9.6-1.9.5-1.9v-.9l.2-.9.2-1 .2-1 .2-1v-1.4l.3-2.3.2-2.6v-2.4-2.3-3.6l-.3-2.1-.4-2.1v-1l-.2-1-.2-1-.3-1a52 52 0 0 0-2.2-6.3z"></path><path d="M56.4 108.1h4.7l1.6-.2h1.6l1.6-.3 1.6-.3 3.2-.8.8-.2.8-.3.8-.3h.9l1.9-.8 1.9-.9 4-2.1.7-.4.6-.4 1-.7.4-.3.4-.3.6-.5c.7-.6.5-.5-.7.2a60.1 60.1 0 0 1-7.5 4.1 55.9 55.9 0 0 1-19 4.9h-8l-2.4-.3-2.2-.4-1.2-.3-1.3-.3-1.3-.3-1.3-.4-.6-.2-.6-.2-1.2-.4-2.3-.9a48.1 48.1 0 0 1-7.4-3.8h.1a53.7 53.7 0 0 0 6.1 2.8l1.6.6h.7l.8.3.8.3h.8l1.6.4 1 .2a59.4 59.4 0 0 0 9.8 1.3 40.1 40.1 0 0 0 11.4-.9h.3a51.2 51.2 0 0 0 6.8-1.9l3.3-1.3h.4l.4-.2.8-.4 1.6-.8 1.6-.8.8-.4.8-.5.8-.5.7-.5 1.5-1 1.4-1.1.7-.5.7-.6 1.4-1.1 1.3-1.2.6-.6.6-.6 1.2-1.2 1.1-1.2.6-.6.5-.6a53.4 53.4 0 0 0 6-9 48.6 48.6 0 0 0 3.5-8.4 54.8 54.8 0 0 0 1.9-8.9l.2-1.7v-4c0-.6 0-1.2.1-1.8s0-1.6 0-2.4-.1-1.7-.2-2.5-.2-1.7-.3-2.6v-1.4l-.2-1.3v-.7l-.2-.7-.3-1.4v-.7l-.2-.7-.4-1.4-.8-2.3v-.6l-.2-.6-.5-1.1-.2-.6-.3-.5-1.2-1.1c-.3-.7-.7-1.4-1.1-2.1S97.5 28 97 27.1l-.2-.3-.2-.3-.5-.7-.5-.7-.5-.7-2-2.6-1-1.3-1.1-1.2A48.2 48.2 0 0 0 76 8.1l-1.4-.6-.3-.2h-.4l-.7-.3-1.4-.6-1.4-.5-.7-.2-.7-.4-1.4-.4h-.7l-.7-.2-1.4-.4a52.3 52.3 0 0 0-5.8-1 51.1 51.1 0 0 0-18.7 1.2l-1 .3-1 .3-1 .3-1 .4-.9.4-.5.2-.5.2-1.9.9h.2l1.3-.3.7-.2.7-.2 1.5-.5.8-.2.8-.2 1.7-.4 1.5-.5.8-.2h.8l1.7-.4h1l1.3-.2h1.3a56.2 56.2 0 0 1 10.9.1 44.2 44.2 0 0 1 10.6 2.2l1.3.5.7.3h.3l-2.8-.9a48 48 0 0 0-9.2-1.6H60l3 .4 1.5.3 1.5.3 1.5.4.7.2h.7l1.5.4.7.2.7.3a54.5 54.5 0 0 1 6.8 2.8l.8.4a51.8 51.8 0 0 1 8.2 6.2l1.2 1.1.6.6.6.6 1.1 1.2.5.6.5.6 1 1.2 1 1.3.5.6.4.7.9 1.3.8 1.4.8 1.4.8 1.4.2.4.2.4.3.7.3.7.2.4v.2h.1l.6 1.5.3.8.3.7.5 1.5.2.8.2.8.2.8v.8l.4 1.6v.8l.2.8.2 1.2.2 1.2.2 1.2c.1.4.1.8.1 1.2a44 44 0 0 1-.2 11.6 51.6 51.6 0 0 1-2.6 10l-.2.6a51.7 51.7 0 0 1-2.1 5l-.2.4-.2.3-.4.7-.4.7-.2.3-.2.3c-.5.9-1.1 1.8-1.6 2.7l-.9 1.3-.9 1.3-.5.6-.5.6-1 1.2-1.1 1.3-.6.6-.6.6-1.2 1.2-1.2 1.2-.6.6-.7.5-1.3 1.1-1.4 1-.7.5-.7.5a51.9 51.9 0 0 1-8.8 4.8l-1.2.5-.6.2-.6.2-1.2.4-1.2.4-1.2.4-1.2.3-1.2.3h-.4l-2.1.4-2 .3h-14l-2-.3-2-.4-2-.5-.6-.2-1.9-.5-2-.7-1-.4-1-.4-1.9-.9-.8-.4-.8-.4-.8-.5-.8-.5-1.2-.7a51.3 51.3 0 0 1-6.3-5.3l-1.3-1.3-1.3-1.4A51.4 51.4 0 0 1 6.9 72.5l-.2-.7-.2-.7-.4-1.3-.2-.7-.2-.7-.3-1.3v-1.5l-.3-1.5-.2-1.5c-.1-.5-.1-1-.2-1.5-.2-2.4-.3-4-.4-4.6s-.2-.2-.2 1.3v4.5a37.1 37.1 0 0 0 1.3 7.4 53.1 53.1 0 0 0 4.4 11.5 54 54 0 0 0 7.1 10 56.7 56.7 0 0 0 5.5 5.3 50 50 0 0 0 6.1 4.3l.7.4.7.4.7.4.3.2.4.2 2.9 1.4a46.4 46.4 0 0 0 10.5 3.4l1.7.3h1.8l3.3.3h4.9z"></path><path d="M29.8 7.5l-.8.4-1.7.9-1.8 1-.5.3-.5.3-1 .7-2 1.4a57.2 57.2 0 0 0-6.5 5.9 50.4 50.4 0 0 0-6.9 9.2l-.5.8-.5.8-.5.9-.4.9-.8 1.7-.4.9-.4.9a55.2 55.2 0 0 0-2.4 7.3l-.2.7v.6l-.2 1.2v9.4A52.3 52.3 0 0 0 2 64.1v.7l.2.7.4 1.5.2.7.2.7.5 1.6v.7l.3.7.5 1.4.7 1.4.3.7v.3l.2.4 1 2 1.1 1.9.6 1c.1.1.1.1 0-.2l-.6-1.2-.5-1-.3-.7-.3-.7-.6-1.4-.3-.7-.3-.6-.6-1.4-.5-1.4-.5-1.4-.4-1.4-.2-.7-.2-.7-.3-1-.2-1-.4-2.2c-.2-1.4-.4-2.7-.6-3.7s-.1-.9-.1-1.3 0-1.1-.1-1.7v-6.6l.2-1.4c.1-.5.2-1 .2-1.4l.2-1.4.3-1.5.3-1.5c.1-.5.5-2 .8-3l.8-1.2.4-1.2.4-1.2.5-1.2.5-1.2.5-1.1.5-1.2.6-1.1.6-1.2.7-1.1.3-.6.4-.6.8-1.1.5-.7.6-.7.6-.7.6-.8 1.2-1.5.6-.7.6-.7A55.3 55.3 0 0 1 29.8 7.9l2.4-1.3-1.5.6z"></path><circle cx="15.3" cy="84.6" r=".7"></circle><circle cx="8.8" cy="82.8" r=".5"></circle><circle cx="97" cy="34.8" r="1.1"></circle><circle cx="92.2" cy="17.7" r=".7"></circle><circle cx="14.6" cy="90" r=".7"></circle><path d="M.2 54.8a11.6 11.6 0 0 0 .5-3.4 41.1 41.1 0 0 1 .6-6 51.9 51.9 0 0 1 10.1-23.2A59.5 59.5 0 0 1 24.3 9.8l2.6-1.6a23 23 0 0 1 2.7-1.5l3-1.5h.4a.5.5 0 0 0-.1.3.5.5 0 1 0 1.1 0 .5.5 0 0 0-.5-.5l2.3-1c1.1-.4 2.1-.8 3.2-1.1l3.2-.9a22.8 22.8 0 0 1 3.3-.7l3.4-.5 3.3-.1a23.4 23.4 0 0 1 3.4 0l4.1.2 4.1.6 1.4.2 1.4.3c1.6.4 3.1.7 4.7 1.2l4.5 1.6c1.3.6 2 .8 1.2.2a11.2 11.2 0 0 0-2.4-1.2l-3.2-1.1c-1-.4-2-.5-3-.8l-3-.8-3.2-.5a25.1 25.1 0 0 0-3.1-.4L56 .1h-3.2a41.6 41.6 0 0 0-6.3.6l-2 .3-1 .2-1 .3-4.1.9-3.5 1.4-1.8.7-1.7.8L28 7l-3.4 2a15.6 15.6 0 0 0-2 1.4l-1.9 1.5a30.9 30.9 0 0 0-2.8 2.4l-1.3 1.2-1.3 1.3-2.5 2.7-1.2 1.4-1.1 1.5-1.2 1.7-1.1 1.7c-.7 1.2-1.5 2.4-2.1 3.6a57.4 57.4 0 0 0-6 20.7c0 1-.1 2.3-.1 3.3s.1 1.6.2 1.4zM108.1 62.1a8.6 8.6 0 0 0-.5 1.9c-.1.6-.2 1.3-.3 1.9l-.5 2c-.3 1.1-.5 2.2-.8 3.3l-1.1 3.2c-.2.5-.4 1.1-.6 1.6l-.7 1.6-1.6 3.2a54 54 0 0 1-13.6 16.3.7.7 0 0 0-.7-.5.7.7 0 0 0-.7.7.7.7 0 0 0 .4.6 54.7 54.7 0 0 1-22.5 10.3l-4 .6-1.9.2h-2l-1.5.2c-.2.1.1.2.5.2h3.6a53 53 0 0 0 8.9-1.6 55.9 55.9 0 0 0 16.8-7.7 54.2 54.2 0 0 0 22.3-33.8 22.9 22.9 0 0 0 .4-2.7 4.9 4.9 0 0 0 .1-1.5zM17.6 94.5a52.3 52.3 0 0 1-9.9-12.4 31.7 31.7 0 0 1-2.1-4l-1-2c-.3-.7-.5-1.4-.8-2.1A52.6 52.6 0 0 1 .3 55.9a5.2 5.2 0 0 0-.3-1 4.2 4.2 0 0 0 0 .9c.1 1.6.1 3.2.2 5.1A53.8 53.8 0 0 0 6.4 81l.7 1.2 1.3 2a18.4 18.4 0 0 0 1.3 2c1 1.3 1.9 2.6 2.9 3.9l2.8 3.1c1 .9 2 1.7 3 2.6l.6.4-.6-.8zM95.2 19.2a.7.7 0 0 0 0 1.5.7.7 0 0 0 .7-.7c.9 1.1 1.8 2.3 2.7 3.5l1 1.3.9 1.4 1.7 2.8 1.4 2.9a24.1 24.1 0 0 1 1.3 3 6.1 6.1 0 0 0 .7 1.4 5.3 5.3 0 0 0-.3-1.5 19.3 19.3 0 0 0-1.3-3.1c-.5-1-1-2.1-1.6-3.1l-1.8-3-.9-1.5-1-1.4-2.3-2.7-1.4-1.4-.8-.6a5.9 5.9 0 0 0 .8 1.2zM35.7 105.7c-1.3-.5-2.4-.8-2.1-.5l1.6.8 2.6 1a23.1 23.1 0 0 0 4.6 1c.4 0-.8-.4-3.7-1.2zm2.6.9z"></path></g></g><g id="SvgjsG1545" featureKey="hxX9kV" fill="url(#SvgjsLinearGradient1554)" transform="matrix(1.3914930555555554,0,0,1.3914930555555554,197.05927898072534,145.36784828950962)"><ellipse cx="60.193" cy="18.01" rx="2.365" ry="2.464"></ellipse><path d="M50.743,23.179c-0.636,0.663-1.664,0.663-2.299,0c-0.636-0.662-0.636-1.733,0-2.394c0.635-0.662,1.663-0.662,2.299,0  C51.377,21.446,51.377,22.519,50.743,23.179z"></path><ellipse cx="47.145" cy="33.196" rx="4.588" ry="4.78"></ellipse><path d="M4.769,78.462c-0.508,0-1.021-0.146-1.474-0.449c-1.221-0.815-1.549-2.467-0.733-3.686l9.069-13.572  c0.464-0.695,1.229-1.132,2.063-1.178c0.846-0.05,1.644,0.306,2.18,0.943l3.401,4.045l13.966-20.123  c0.531-0.766,1.412-1.202,2.357-1.137c0.93,0.061,1.761,0.604,2.189,1.434l6.267,12.149l25.043-39.575  c0.526-0.833,1.479-1.303,2.452-1.229c0.982,0.077,1.841,0.69,2.232,1.594L97.238,71.84c0.583,1.348-0.036,2.911-1.384,3.494  c-1.344,0.584-2.912-0.035-3.494-1.383L70.903,24.404l-24.838,39.25c-0.509,0.804-1.386,1.27-2.363,1.233  c-0.951-0.041-1.809-0.589-2.245-1.437L35.09,51.105L21.663,70.45c-0.472,0.682-1.234,1.101-2.061,1.14  c-0.83,0.033-1.625-0.311-2.157-0.944l-3.36-3.995L6.982,77.28C6.469,78.046,5.627,78.462,4.769,78.462z"></path></g><g id="SvgjsG1546" featureKey="ayssNk" fill="url(#SvgjsLinearGradient1560)" transform="matrix(3.6,0,0,3.6,123.0800006866455,263.00800075531004)"><path d="M4.38 14.100000000000001 l0 3.8 l9.2 0 l0 2.18 l-11.38 0 l0 -14.92 l10.5 0 l0 2.2 l-8.32 0 l0 4.52 c0.9 -0.52 1.84 -0.58 2.82 -0.58 l3.26 0 l0 2.22 l-3.26 0 c-0.96 0 -1.92 0.1 -2.82 0.58 z  M33.51771679687501 7.080000000000002 l-1.4 1.64 c-1.08 -1.12 -2.66 -1.8 -4.36 -1.8 c-3.32 0 -5.88 2.38 -5.88 5.74 c0 3.22 2.78 5.58 5.9 5.58 c1.94 0 3.66 -0.9 4.74 -2.34 l1.34 1.82 c-1.5 1.68 -3.7 2.7 -6.1 2.7 c-4.52 0 -8.02 -3.52 -8.02 -8.02 c0 -4.4 3.76 -7.68 8.04 -7.68 c2.24 0 4.28 0.9 5.74 2.36 z  M42.87543359375 13.480000000000002 l0 6.6 l-2.16 0 l0 -14.92 l2.16 0 l0 6.12 c0.6 -0.3 1.26 -0.4 1.9 -0.4 c0.88 0 3.5 0.44 4.86 0.44 c0.62 0 1.38 -0.1 2.02 -0.38 l0 -5.78 l2.18 0 l0 14.92 l-2.18 0 l0 -6.94 c-0.64 0.28 -1.4 0.38 -2.02 0.38 c-1.36 0 -3.98 -0.44 -4.86 -0.44 c-0.64 0 -1.3 0.1 -1.9 0.4 z  M74.793150390625 12.520000000000003 c0 -3.28 -2.7 -5.6 -5.88 -5.6 c-3.32 0 -5.88 2.38 -5.88 5.74 c0 3.22 2.78 5.58 5.9 5.58 c3.2 0 5.86 -2.48 5.86 -5.72 z M76.95315039062501 12.64 c0 4.4 -3.72 7.78 -8.04 7.78 c-4.52 0 -8.02 -3.52 -8.02 -8.02 c0 -4.4 3.76 -7.68 8.04 -7.68 c4.42 0 8.02 3.46 8.02 7.92 z"></path></g><g id="SvgjsG1547" featureKey="chDWp9" fill="url(#SvgjsLinearGradient1566)" transform="matrix(1.4,0,0,1.4,113.29200012683869,340.2680025100708)"><path d="M5.64 24.3 q-0.92 0 -1.72 -0.35 t-1.4 -0.95 t-0.95 -1.4 t-0.35 -1.72 q0 -0.38 0.26 -0.64 t0.64 -0.26 q0.36 0 0.62 0.26 t0.26 0.64 q0 0.54 0.21 1.02 t0.57 0.84 t0.84 0.57 t1.02 0.21 t1.03 -0.21 t0.85 -0.57 t0.57 -0.84 t0.21 -1.02 q0 -0.66 -0.26 -1.09 t-0.72 -0.75 q-0.22 -0.16 -0.5 -0.29 t-0.58 -0.27 q-0.3 -0.12 -0.62 -0.24 t-0.66 -0.24 q-0.66 -0.24 -1.33 -0.54 t-1.2 -0.75 t-0.87 -1.12 t-0.34 -1.65 q0 -0.92 0.35 -1.72 t0.95 -1.4 t1.4 -0.95 t1.72 -0.35 t1.73 0.35 t1.41 0.95 t0.95 1.4 t0.35 1.72 q0 0.36 -0.26 0.62 t-0.64 0.26 q-0.36 0 -0.62 -0.26 t-0.26 -0.62 q0 -0.54 -0.21 -1.03 t-0.57 -0.85 t-0.85 -0.57 t-1.03 -0.21 t-1.02 0.21 t-0.84 0.57 t-0.57 0.85 t-0.21 1.03 q0 0.6 0.25 1 t0.71 0.7 q0.48 0.3 1.08 0.54 l0.64 0.24 t0.66 0.24 q0.66 0.24 1.33 0.55 t1.2 0.78 t0.87 1.17 t0.34 1.72 q0 0.92 -0.35 1.72 t-0.95 1.4 t-1.41 0.95 t-1.73 0.35 z M21.154846842447917 24.3 q-0.96 0 -1.82 -0.33 t-1.56 -0.93 l0 4.86 q0 0.38 -0.26 0.64 t-0.62 0.26 q-0.38 0 -0.64 -0.26 t-0.26 -0.64 l0 -13.02 q0 -0.36 0.26 -0.62 t0.64 -0.26 q0.36 0 0.62 0.26 t0.26 0.62 l0 0.38 q0.7 -0.6 1.56 -0.93 t1.82 -0.33 q1.06 0 2 0.41 t1.64 1.11 t1.1 1.63 t0.4 1.99 t-0.4 2 t-1.1 1.64 t-1.64 1.11 t-2 0.41 z M21.154846842447917 15.78 q-0.7 0 -1.31 0.26 t-1.07 0.72 t-0.73 1.07 t-0.27 1.31 t0.27 1.31 t0.73 1.07 t1.07 0.73 t1.31 0.27 t1.31 -0.27 t1.07 -0.73 t0.72 -1.07 t0.26 -1.31 t-0.26 -1.31 t-0.72 -1.07 t-1.07 -0.72 t-1.31 -0.26 z M33.48969368489584 14.58 q0.32 -0.28 0.71 -0.43 t0.79 -0.15 q0.98 0 1.61 0.48 t0.97 1.38 q0.08 0.2 0.06 0.42 t-0.13 0.4 t-0.3 0.29 t-0.45 0.11 q-0.22 0 -0.39 -0.1 t-0.29 -0.24 q-0.1 -0.12 -0.17 -0.25 t-0.15 -0.27 q-0.14 -0.22 -0.31 -0.36 t-0.57 -0.1 q-0.26 0.02 -0.5 0.16 t-0.42 0.34 t-0.29 0.45 t-0.11 0.51 l0 6.2 q0 0.36 -0.26 0.62 t-0.62 0.26 q-0.38 0 -0.64 -0.26 t-0.26 -0.62 l0 -8.54 q0 -0.36 0.26 -0.62 t0.64 -0.26 q0.28 0 0.5 0.16 t0.32 0.42 z M51.14454052734376 19.62 l-7.58 0 q0.08 0.62 0.37 1.15 t0.74 0.92 t1.02 0.61 t1.21 0.22 q0.38 0 0.69 -0.06 t0.58 -0.19 t0.54 -0.32 t0.59 -0.43 q0.12 -0.1 0.25 -0.17 t0.35 -0.07 q0.38 0 0.64 0.26 t0.26 0.62 q0 0.22 -0.08 0.36 t-0.18 0.26 q-0.32 0.36 -0.75 0.65 t-0.92 0.48 t-1 0.29 t-0.97 0.1 q-1.06 0 -2 -0.41 t-1.64 -1.11 t-1.11 -1.63 t-0.41 -1.99 t0.41 -2 t1.11 -1.64 t1.64 -1.11 t2 -0.41 q1.02 0 1.92 0.34 t1.6 0.97 t1.12 1.5 t0.48 1.91 q0.02 0.4 -0.25 0.65 t-0.63 0.25 z M46.904540527343755 15.78 q-1.04 0 -1.88 0.57 t-1.24 1.49 l6.22 0 q-0.38 -0.94 -1.23 -1.5 t-1.87 -0.56 z M66.03938736979167 24.3 q-0.38 0 -0.64 -0.26 t-0.26 -0.62 l0 -0.38 q-0.7 0.6 -1.56 0.93 t-1.8 0.33 q-1.06 0 -2 -0.41 t-1.64 -1.11 t-1.11 -1.63 t-0.41 -1.99 t0.41 -2 t1.11 -1.64 t1.64 -1.11 t2 -0.41 q0.94 0 1.8 0.33 t1.56 0.93 l0 -0.38 q0 -0.36 0.26 -0.62 t0.64 -0.26 q0.36 0 0.62 0.26 t0.26 0.62 l0 8.54 q0 0.36 -0.26 0.62 t-0.62 0.26 z M61.77938736979167 15.78 q-0.7 0 -1.31 0.27 t-1.07 0.73 t-0.73 1.07 t-0.27 1.31 t0.27 1.31 t0.73 1.07 t1.07 0.72 t1.31 0.26 t1.31 -0.26 t1.07 -0.72 t0.72 -1.07 t0.26 -1.31 t-0.26 -1.31 t-0.72 -1.07 t-1.07 -0.73 t-1.31 -0.27 z M81.8142342122396 24.3 q-0.38 0 -0.64 -0.26 t-0.26 -0.62 l0 -0.38 q-0.7 0.6 -1.56 0.93 t-1.8 0.33 q-1.06 0 -2 -0.41 t-1.64 -1.11 t-1.11 -1.63 t-0.41 -1.99 t0.41 -2 t1.11 -1.64 t1.64 -1.11 t2 -0.41 q0.94 0 1.8 0.33 t1.56 0.95 l0 -5.88 q0 -0.36 0.26 -0.62 t0.64 -0.26 q0.36 0 0.62 0.26 t0.26 0.62 l0 14.02 q0 0.36 -0.26 0.62 t-0.62 0.26 z M77.55423421223959 15.78 q-0.7 0 -1.31 0.27 t-1.07 0.73 t-0.73 1.07 t-0.27 1.31 t0.27 1.31 t0.73 1.06 t1.07 0.72 t1.31 0.27 q0.68 0 1.3 -0.27 t1.07 -0.72 t0.72 -1.06 t0.27 -1.31 t-0.27 -1.31 t-0.72 -1.07 t-1.07 -0.73 t-1.3 -0.27 z  M103.76392789713543 15.78 l-1.62 0 l0 7.64 q0 0.36 -0.26 0.62 t-0.64 0.26 q-0.36 0 -0.62 -0.26 t-0.26 -0.62 l0 -7.64 l-1.64 0 q-0.36 0 -0.62 -0.26 t-0.26 -0.62 q0 -0.38 0.26 -0.64 t0.62 -0.26 l1.64 0 l0 -2.94 q0 -0.38 0.26 -0.63 t0.62 -0.25 q0.38 0 0.64 0.25 t0.26 0.63 l0 2.94 l1.62 0 q0.38 0 0.64 0.26 t0.26 0.64 q0 0.36 -0.26 0.62 t-0.64 0.26 z M117.25877473958334 24.3 q-0.38 0 -0.64 -0.26 t-0.26 -0.62 l0 -5.24 q0 -0.5 -0.19 -0.93 t-0.52 -0.76 t-0.76 -0.52 t-0.93 -0.19 q-0.48 0 -0.92 0.19 t-0.76 0.52 t-0.51 0.76 t-0.19 0.93 q0 0.08 -0.04 0.16 l0 5.08 q0 0.36 -0.26 0.62 t-0.62 0.26 q-0.38 0 -0.64 -0.26 t-0.26 -0.62 l0 -14.02 q0 -0.36 0.26 -0.62 t0.64 -0.26 q0.36 0 0.62 0.26 t0.26 0.62 l0 5.38 q0.52 -0.38 1.15 -0.58 t1.27 -0.2 q0.86 0 1.62 0.33 t1.33 0.9 t0.9 1.33 t0.33 1.62 l0 5.24 q0 0.36 -0.26 0.62 t-0.62 0.26 z M132.57362158203128 19.62 l-7.58 0 q0.08 0.62 0.37 1.15 t0.74 0.92 t1.02 0.61 t1.21 0.22 q0.38 0 0.69 -0.06 t0.58 -0.19 t0.54 -0.32 t0.59 -0.43 q0.12 -0.1 0.25 -0.17 t0.35 -0.07 q0.38 0 0.64 0.26 t0.26 0.62 q0 0.22 -0.08 0.36 t-0.18 0.26 q-0.32 0.36 -0.75 0.65 t-0.92 0.48 t-1 0.29 t-0.97 0.1 q-1.06 0 -2 -0.41 t-1.64 -1.11 t-1.11 -1.63 t-0.41 -1.99 t0.41 -2 t1.11 -1.64 t1.64 -1.11 t2 -0.41 q1.02 0 1.92 0.34 t1.6 0.97 t1.12 1.5 t0.48 1.91 q0.02 0.4 -0.25 0.65 t-0.63 0.25 z M128.33362158203127 15.78 q-1.04 0 -1.88 0.57 t-1.24 1.49 l6.22 0 q-0.38 -0.94 -1.23 -1.5 t-1.87 -0.56 z  M166.9433152669271 16.22 q-0.48 1.28 -0.94 2.53 t-0.85 2.28 t-0.65 1.75 t-0.34 0.94 q-0.1 0.26 -0.33 0.42 t-0.51 0.16 t-0.51 -0.16 t-0.33 -0.42 l-4.36 -11.88 l-4.38 11.88 q-0.1 0.26 -0.32 0.42 t-0.5 0.16 t-0.51 -0.16 t-0.33 -0.42 q-0.08 -0.22 -0.35 -0.94 t-0.65 -1.75 t-0.84 -2.28 t-0.94 -2.53 q-0.46 -1.26 -0.91 -2.47 t-0.8 -2.18 t-0.56 -1.6 t-0.21 -0.71 q0 -0.36 0.26 -0.62 t0.62 -0.26 q0.28 0 0.51 0.16 t0.33 0.42 l4.38 11.88 l4.36 -11.88 q0.1 -0.26 0.33 -0.42 t0.51 -0.16 t0.5 0.16 t0.32 0.42 l4.38 11.88 l4.36 -11.88 q0.1 -0.26 0.33 -0.42 t0.51 -0.16 q0.36 0 0.62 0.26 t0.26 0.62 q0 0.08 -0.21 0.71 t-0.56 1.6 t-0.79 2.18 t-0.9 2.47 z M177.878162109375 24.3 q-1.06 0 -2 -0.41 t-1.64 -1.11 t-1.11 -1.63 t-0.41 -1.99 t0.41 -2 t1.11 -1.64 t1.64 -1.11 t2 -0.41 t1.99 0.41 t1.63 1.11 t1.11 1.64 t0.41 2 t-0.41 1.99 t-1.11 1.63 t-1.63 1.11 t-1.99 0.41 z M177.878162109375 15.78 q-0.7 0 -1.31 0.27 t-1.07 0.73 t-0.73 1.07 t-0.27 1.31 t0.27 1.31 t0.73 1.07 t1.07 0.72 t1.31 0.26 t1.31 -0.26 t1.07 -0.72 t0.72 -1.07 t0.26 -1.31 t-0.27 -1.31 t-0.72 -1.07 t-1.07 -0.73 t-1.3 -0.27 z M190.21300895182293 14.58 q0.32 -0.28 0.71 -0.43 t0.79 -0.15 q0.98 0 1.61 0.48 t0.97 1.38 q0.08 0.2 0.06 0.42 t-0.13 0.4 t-0.3 0.29 t-0.45 0.11 q-0.22 0 -0.39 -0.1 t-0.29 -0.24 q-0.1 -0.12 -0.17 -0.25 t-0.15 -0.27 q-0.14 -0.22 -0.31 -0.36 t-0.57 -0.1 q-0.26 0.02 -0.5 0.16 t-0.42 0.34 t-0.29 0.45 t-0.11 0.51 l0 6.2 q0 0.36 -0.26 0.62 t-0.62 0.26 q-0.38 0 -0.64 -0.26 t-0.26 -0.62 l0 -8.54 q0 -0.36 0.26 -0.62 t0.64 -0.26 q0.28 0 0.5 0.16 t0.32 0.42 z M200.22785579427085 24.3 q-0.36 0 -0.62 -0.26 t-0.26 -0.62 l0 -14.02 q0 -0.36 0.26 -0.62 t0.62 -0.26 t0.62 0.26 t0.26 0.62 l0 14.02 q0 0.36 -0.26 0.62 t-0.62 0.26 z M216.02270263671878 24.3 q-0.38 0 -0.64 -0.26 t-0.26 -0.62 l0 -0.38 q-0.7 0.6 -1.56 0.93 t-1.8 0.33 q-1.06 0 -2 -0.41 t-1.64 -1.11 t-1.11 -1.63 t-0.41 -1.99 t0.41 -2 t1.11 -1.64 t1.64 -1.11 t2 -0.41 q0.94 0 1.8 0.33 t1.56 0.95 l0 -5.88 q0 -0.36 0.26 -0.62 t0.64 -0.26 q0.36 0 0.62 0.26 t0.26 0.62 l0 14.02 q0 0.36 -0.26 0.62 t-0.62 0.26 z M211.76270263671879 15.78 q-0.7 0 -1.31 0.27 t-1.07 0.73 t-0.73 1.07 t-0.27 1.31 t0.27 1.31 t0.73 1.06 t1.07 0.72 t1.31 0.27 q0.68 0 1.3 -0.27 t1.07 -0.72 t0.72 -1.06 t0.27 -1.31 t-0.27 -1.31 t-0.72 -1.07 t-1.07 -0.73 t-1.3 -0.27 z"></path></g>
			</g>
		</svg>
	